<svg xmlns="http://www.w3.org/2000/svg" width="237.101" height="95.636" viewBox="0 0 237.101 95.636"><g transform="translate(-94.628 -376.414)"><g transform="translate(-24.831 287.45)"><g transform="translate(135.831 131.325)"><path d="M149.359,132.8l-3.991,3.907v32.1h-2.1v-30l-5.881,5.966-1.555-1.471,11.975-11.975Zm17.018,1.049v1.387h7.058v2.1h-7.058v25.925h7.058v2.1h-9.159V137.333H152.427v25.925h6.933v2.1h-9.033V131.745h23.108v2.1Zm7.058,32.86v2.1H150.328v-2.1Zm-9.159-32.86H152.427v1.387h11.849Z" transform="translate(-135.831 -131.325)" fill="#407f28"/><path d="M200.432,137.213v-2.1H186.355v-3.571h-2.1v3.571h-3.487v2.1h5.587l-6.931,6.933v-2.017h-7.059V131.541h-2.1v10.588H163.33v2.1h6.933v2.016l-7.437,7.353,1.555,1.555,5.882-5.966V168.6h2.1V149.188l6.008,5.966,1.469-1.471-3.487-3.571,4.537-4.411v2.016h6.933v1.471h-6.933v2.1h15.966v-3.572h3.572v-2.1h-3.572v-3.487h-6.931v-3.445H187.91l1.387-1.471Zm-25.547,11.428-2.52-2.4V144.23H179.3Zm15.043-4.411h4.832v1.385h-4.832Zm0,3.487h4.832v1.471h-4.832Zm-2.1-2.1h-6.933l1.345-1.385h5.588Zm0-3.487h-3.488l3.488-3.445Z" transform="translate(-120.806 -131.205)" fill="#407f28"/><path d="M174.433,161.143H190.4V145.091H174.433Zm2.1-13.95H188.3v11.85H176.534Z" transform="translate(-114.345 -123.663)" fill="#407f28"/><path d="M214.176,161.721H201.024l-7.437,7.353-1.471-1.469L198,161.721h-2.017V151.259h-3.446v-2.1h3.446v-1.471h-3.446v-2.1h3.446V142.1h3.487v-4.916h-4.832V144.2h-2.1V131.6h12.605v2.1h-10.5v1.387h10.5v2.1h-3.571V142.1h4.916V131.6H222.58v2.1H208.586v1.387H222.58v2.1h-6.935V142.1h3.445v19.622h-1.974l5.966,5.884-1.553,1.469Zm1.469-12.563v2.1H198.082v8.36H216.99V144.2H198.082v1.385h17.563v2.1H198.082v1.471Zm-7.059-7.059h4.959v-4.916h-4.959Z" transform="translate(-104.503 -131.175)" fill="#407f28"/><path d="M254.423,166.7v2.1h-37.1v-2.1h17.437V140.9H220.81v-2.1l-2.439,2.522-1.553-1.471,8.488-8.53,1.471,1.471-2.4,2.436h10.378v-3.487h2.1v3.487h13.994v2.1H236.858V138.8h13.994v2.1H236.858v25.8Zm-19.664-27.9v-1.471H222.279l-1.385,1.471Z" transform="translate(-90.755 -131.325)" fill="#407f28"/><path d="M255.788,141.679l1.555,1.471-11.975,11.975-1.555-1.471Zm1.051-4.5H244.317v-2.1h12.521Zm0,3.571H244.317v-2.1h12.521Zm14.076-7.059v1.387h10.5v2.1h-10.5v1.471h6.933v30H261.754v-30h7.059v-1.471h-10.5v-2.1h10.5v-1.387h-10.5v-2.1h23.109v2.1Zm4.832,7.059H263.854v25.8h11.892Z" transform="translate(-75.729 -131.175)" fill="#407f28"/></g><ellipse cx="3.012" cy="1.121" rx="3.012" ry="1.121" transform="translate(178.871 138.767) rotate(-55.371)" fill="#ca9e51"/><ellipse cx="1.121" cy="3.012" rx="1.121" ry="3.012" transform="translate(188.643 135.035) rotate(-30)" fill="#ca9e51"/><g transform="translate(140.453 174.345)"><path d="M146.4,160.458h-2.947v8.508h-1.734v-8.508H138.8v-1.39h7.6Z" transform="translate(-138.8 -158.903)" fill="#c49a51"/><path d="M152.375,160.432h-4.81v2.617H151.2v1.364h-3.636V167.6h4.911v1.365h-6.633v-9.9h6.531Z" transform="translate(-134.879 -158.903)" fill="#c49a51"/><path d="M154.032,168.966H152.3v-9.9h1.734Z" transform="translate(-131.287 -158.903)" fill="#c49a51"/><path d="M163.176,160.458h-2.948v8.508h-1.734v-8.508h-2.92v-1.39h7.6Z" transform="translate(-129.464 -158.903)" fill="#c49a51"/><path d="M170.665,164.075c0,3.266-1.709,5.141-4.248,5.141s-4.234-1.851-4.234-5.115,1.723-5.14,4.248-5.14S170.665,160.8,170.665,164.075Zm-6.658.014c0,2.525.97,3.8,2.424,3.8s2.41-1.275,2.41-3.8-.956-3.8-2.41-3.8S164.007,161.551,164.007,164.089Z" transform="translate(-125.785 -158.962)" fill="#c49a51"/><path d="M174.973,161.882c-.255-1.072-.842-1.62-1.76-1.62-1.046,0-1.645.5-1.645,1.289,0,.867.383,1.264,1.812,1.658l.523.153c2.257.613,2.9,1.466,2.9,2.922,0,1.734-1.2,2.934-3.571,2.934a3.47,3.47,0,0,1-3.737-2.565l1.645-.523a2.038,2.038,0,0,0,2.053,1.787c1.3,0,1.888-.56,1.888-1.417s-.307-1.25-1.927-1.709l-.509-.154c-2.1-.624-2.78-1.452-2.78-2.972,0-1.491,1.172-2.7,3.3-2.7a3.347,3.347,0,0,1,3.481,2.461Z" transform="translate(-121.719 -158.962)" fill="#c49a51"/><path d="M184.029,168.966H182.32V164.5H178.2v4.464h-1.708v-9.9H178.2v4.03h4.12v-4.03h1.709Z" transform="translate(-117.821 -158.903)" fill="#c49a51"/><path d="M185.736,168.966H184v-9.9h1.734Z" transform="translate(-113.641 -158.903)" fill="#c49a51"/><path d="M194.879,160.458h-2.947v8.508H190.2v-8.508h-2.922v-1.39h7.6Z" transform="translate(-111.818 -158.903)" fill="#c49a51"/><path d="M199.265,161.882c-.255-1.072-.842-1.62-1.76-1.62-1.046,0-1.645.5-1.645,1.289,0,.867.383,1.264,1.812,1.658l.523.153c2.257.613,2.9,1.466,2.9,2.922,0,1.734-1.2,2.934-3.571,2.934a3.47,3.47,0,0,1-3.737-2.565l1.645-.523a2.038,2.038,0,0,0,2.053,1.787c1.3,0,1.888-.56,1.888-1.417s-.307-1.25-1.927-1.709l-.509-.154c-2.1-.624-2.78-1.452-2.78-2.972,0-1.491,1.172-2.7,3.3-2.7a3.347,3.347,0,0,1,3.481,2.461Z" transform="translate(-108.198 -158.962)" fill="#c49a51"/><path d="M208.279,165.547c0,2.374-1.455,3.6-3.739,3.6s-3.773-1.186-3.773-3.6v-6.479h1.72v6.454c0,1.62.778,2.308,2.092,2.308s2.092-.688,2.092-2.308v-6.454h1.608Z" transform="translate(-104.31 -158.903)" fill="#c49a51"/><path d="M220.231,161.882c-.255-1.072-.842-1.62-1.759-1.62-1.048,0-1.647.5-1.647,1.289,0,.867.383,1.264,1.812,1.658l.523.153c2.257.613,2.894,1.466,2.894,2.922,0,1.734-1.2,2.934-3.571,2.934a3.472,3.472,0,0,1-3.737-2.565l1.647-.523a2.04,2.04,0,0,0,2.053,1.787c1.3,0,1.888-.56,1.888-1.417s-.307-1.25-1.926-1.709l-.511-.154c-2.106-.624-2.782-1.452-2.782-2.972,0-1.491,1.174-2.7,3.3-2.7a3.351,3.351,0,0,1,3.484,2.461Z" transform="translate(-96.529 -158.962)" fill="#c49a51"/><path d="M228.279,160.432h-4.808v2.617h3.635v1.364h-3.635V167.6h4.911v1.365h-6.633v-9.9h6.53Z" transform="translate(-92.631 -158.903)" fill="#c49a51"/><path d="M236.332,164.075c0,3.266-1.709,5.141-4.248,5.141s-4.232-1.851-4.232-5.115,1.72-5.14,4.246-5.14S236.332,160.8,236.332,164.075Zm-6.659.014c0,2.525.971,3.8,2.425,3.8s2.41-1.275,2.41-3.8-.956-3.8-2.41-3.8S229.673,161.551,229.673,164.089Z" transform="translate(-89.234 -158.962)" fill="#c49a51"/><path d="M239.583,163.009l3.725,5.957h-1.952l-2.883-4.759-1.161,1.3v3.457h-1.7v-9.9h1.7v4.516l3.737-4.516h1.964Z" transform="translate(-84.914 -158.903)" fill="#c49a51"/><path d="M250.216,168.966h-1.8l-.842-2.908h-3.037l-.853,2.908h-1.633l3.035-9.9h2.08Zm-3.521-6.187c-.216-.777-.369-1.505-.587-2.434h-.114c-.218.943-.4,1.658-.613,2.422l-.534,2.016h2.422Z" transform="translate(-81.33 -158.903)" fill="#c49a51"/><path d="M256.157,160.458h-2.945v8.508h-1.734v-8.508h-2.922v-1.39h7.6Z" transform="translate(-77.711 -158.903)" fill="#c49a51"/><path d="M260.542,161.882c-.254-1.072-.841-1.62-1.759-1.62-1.048,0-1.645.5-1.645,1.289,0,.867.383,1.264,1.812,1.658l.523.153c2.257.613,2.894,1.466,2.894,2.922,0,1.734-1.2,2.934-3.571,2.934a3.471,3.471,0,0,1-3.737-2.565l1.645-.523a2.041,2.041,0,0,0,2.055,1.787c1.3,0,1.887-.56,1.887-1.417s-.307-1.25-1.925-1.709l-.511-.154c-2.106-.624-2.78-1.452-2.78-2.972,0-1.491,1.174-2.7,3.3-2.7a3.35,3.35,0,0,1,3.482,2.461Z" transform="translate(-74.092 -158.962)" fill="#c49a51"/><path d="M269.557,165.547c0,2.374-1.454,3.6-3.737,3.6s-3.775-1.186-3.775-3.6v-6.479h1.72v6.454c0,1.62.778,2.308,2.092,2.308s2.092-.688,2.092-2.308v-6.454h1.608Z" transform="translate(-70.203 -158.903)" fill="#c49a51"/></g></g><path d="M11.985-7.572V-5.91H10.563A6.092,6.092,0,0,1,9.289-6v1.108a6.931,6.931,0,0,1,1.256-.092h4.617c.517,0,.923.018,1.33.055a9.432,9.432,0,0,1-.055-1.145v-1.5a6.228,6.228,0,0,1,1.348.092V-8.624a5.627,5.627,0,0,1-1.348.092V-9.843a11.175,11.175,0,0,1,.055-1.163c-.388.037-.794.055-1.422.055H13a4.657,4.657,0,0,1,.092-1.127h-1.2a4.216,4.216,0,0,1,.092,1.127H10.729a6.77,6.77,0,0,1-1.348-.092v1.108a10.192,10.192,0,0,1,1.311-.092h1.293v1.5H8.55c.055-1.274.055-1.994.074-3.97h7.2a10.759,10.759,0,0,1,1.681.092v-1.2a10.881,10.881,0,0,1-1.7.111H12.872v-.351a7.519,7.519,0,0,1,.111-1.422H11.634a7.877,7.877,0,0,1,.092,1.4v.369H9.067a13.035,13.035,0,0,1-1.607-.074,20.9,20.9,0,0,1,.074,2.253c0,6.408-.48,9.418-1.847,11.745a4.069,4.069,0,0,1,1,.7c1.163-2.179,1.588-4.192,1.828-8.7Zm3.435,0V-5.91H13V-7.572Zm0-.96H13v-1.5H15.42ZM4.765-8.9v-4.488a12.254,12.254,0,0,1,.111-1.976H3.583a13.347,13.347,0,0,1,.111,1.994V-8.9H2.548a9.244,9.244,0,0,1-1.514-.092v1.2a7.636,7.636,0,0,1,1.5-.092h.942A14.843,14.843,0,0,1,.628-2.142a2.725,2.725,0,0,1,.739.923A13.708,13.708,0,0,0,3.8-6.408c-.055,1.127-.092,2.216-.092,2.9V-.517a13.1,13.1,0,0,1-.129,2.031H4.875A12.615,12.615,0,0,1,4.765-.517V-4.026c0-.554-.037-1.662-.092-2.733A10.34,10.34,0,0,0,6.2-4.284a3.693,3.693,0,0,1,.609-.9A9.886,9.886,0,0,1,4.8-7.886h.868a7.747,7.747,0,0,1,1.256.074V-8.975A7.853,7.853,0,0,1,5.651-8.9ZM1.09-13.518a20.885,20.885,0,0,1,1.053,3.8l.942-.332a27.454,27.454,0,0,0-1.071-3.823Zm5.078-.332a17.365,17.365,0,0,1-.942,3.786l.813.332a20.247,20.247,0,0,0,1.09-3.823ZM9.141-.111A11.352,11.352,0,0,1,9.03,1.5h1.2V.628h5.282V1.5h1.219A11.138,11.138,0,0,1,16.62-.222V-2.548a7.644,7.644,0,0,1,.074-1.237,9.206,9.206,0,0,1-1.348.074H10.489a9.992,9.992,0,0,1-1.422-.074,7.007,7.007,0,0,1,.074,1.145Zm1.09-2.641h5.282v2.4H10.231Zm13.832-8.9v.9a10.819,10.819,0,0,1-.074,1.127h1.237a9.933,9.933,0,0,1-.074-1.145v-.886h.757a8.416,8.416,0,0,1,1.459.092v-1.163a8.012,8.012,0,0,1-1.477.092H21.865c.018-.351.018-.536.037-1.053a18.733,18.733,0,0,0,5.374-.979l-.831-.923a7.257,7.257,0,0,1-2.29.7,24.143,24.143,0,0,1-3.047.3H20.7a7.812,7.812,0,0,1,.111,1.348c0,2.105-.462,3.343-1.644,4.377a5.123,5.123,0,0,1,.9.868,6.1,6.1,0,0,0,1.7-3.657Zm5.189-.979c.037-.406.037-.572.074-1.071a19.313,19.313,0,0,0,4.432-.628c.9-.259.9-.259,1.182-.332l-.849-.923a8.991,8.991,0,0,1-2.715.739,23.745,23.745,0,0,1-2.678.24c-.166,0-.277,0-.517-.018a5.7,5.7,0,0,1,.055.868,8.365,8.365,0,0,1-.277,2.235,3.14,3.14,0,0,1-.886,1.422,3.78,3.78,0,0,1,.9.757A5,5,0,0,0,29.1-11.653h2.641v.942a9.2,9.2,0,0,1-.074,1.09h1.237a8.987,8.987,0,0,1-.074-1.108v-.923h1.422a8.612,8.612,0,0,1,1.5.092v-1.163a8.742,8.742,0,0,1-1.5.092ZM24.765-1.33a8.488,8.488,0,0,1-2.2,1.053,12.821,12.821,0,0,1-3.121.646,3.529,3.529,0,0,1,.665,1.09,14.486,14.486,0,0,0,5.614-2.05Zm4.783.739A14.319,14.319,0,0,0,35.2,1.514,3.958,3.958,0,0,1,35.826.406a13.213,13.213,0,0,1-5.374-1.681ZM23.8-9.234c-.849,0-1.459-.018-2.05-.074a16.224,16.224,0,0,1,.092,2.087v3.657a14.22,14.22,0,0,1-.092,2.105,19.564,19.564,0,0,1,1.994-.074H31.69a18.94,18.94,0,0,1,1.976.074,13.043,13.043,0,0,1-.092-2.068V-7.2a15.343,15.343,0,0,1,.092-2.105c-.609.055-1.2.074-2.087.074Zm-.813.942h9.455v1.33H22.992Zm0,2.216h9.455v1.33H22.992Zm0,2.216h9.455v1.367H22.992Zm20.351-8.569a25.84,25.84,0,0,1-3.952-.2l-.018,1.274a3.275,3.275,0,0,1,.406-.018h.3c.683.018,2.419.055,2.715.055a2.045,2.045,0,0,0,.351-.037l-.166.277A18.376,18.376,0,0,1,38.837-5.8l1.034,1.034A6.111,6.111,0,0,1,41.293-6.3a6.937,6.937,0,0,1,4.118-1.958c.868,0,1.311.443,1.459,1.459a14.336,14.336,0,0,0-2.752,1.477A3.818,3.818,0,0,0,42.235-2.4c0,1.9,1.607,2.844,4.912,2.844A28.649,28.649,0,0,0,51.634.074a7.268,7.268,0,0,1,.739-.092L52.207-1.44a15.473,15.473,0,0,1-4.931.72c-2.6,0-3.749-.536-3.749-1.754,0-1.108.96-1.976,3.472-3.158a4.853,4.853,0,0,1,.018.554,26.557,26.557,0,0,1-.111,2.659l1.256-.018a4.014,4.014,0,0,1-.037-.665c0-.166,0-.425.018-.831.018-.369.018-.776.018-1.016,0-.462,0-.646-.037-1.127A30.661,30.661,0,0,1,53.056-7.7l-.591-1.293a4.063,4.063,0,0,1-1.256.536c-.813.3-1.865.683-3.213,1.219a2.241,2.241,0,0,0-2.438-2.05,4.915,4.915,0,0,0-2.789.9c-.185.129-.185.129-.849.646a.142.142,0,0,1-.037-.055v-.018A.018.018,0,0,0,41.9-7.83c.018-.018.111-.092.24-.185.074-.055.443-.48.628-.7a13.617,13.617,0,0,0,1.662-2.622,59.629,59.629,0,0,0,6.094-.48,5.757,5.757,0,0,1,.739-.092l-.111-1.256a25.991,25.991,0,0,1-5.817.7,3.144,3.144,0,0,0-.388.018c.092-.166.332-.665.572-1.256a3.922,3.922,0,0,1,.48-1l-1.477-.259a7.838,7.838,0,0,1-.886,2.53ZM58.6-10.563v4.081a11.9,11.9,0,0,1-2.4.72l.277,1.256a7.152,7.152,0,0,1,.96-.406c.388-.129.665-.222,1.163-.425v5.06c0,.314-.111.388-.517.388a9.707,9.707,0,0,1-1.644-.185,4.354,4.354,0,0,1,.24,1.163c.591.055,1.034.092,1.5.092,1.219,0,1.57-.3,1.57-1.293V-5.8c.665-.3.923-.406,1.736-.813V-7.738c-.813.406-1.09.536-1.736.813v-3.638h.572a6.311,6.311,0,0,1,1.09.074v-1.2a6.311,6.311,0,0,1-1.09.074h-.572v-1.736a10.007,10.007,0,0,1,.111-1.865H58.486a12.36,12.36,0,0,1,.111,1.884v1.717h-.868a6.593,6.593,0,0,1-1.311-.092v1.237a8.179,8.179,0,0,1,1.293-.092Zm3.657,7.608a15.848,15.848,0,0,1-1.7.406L60.9-1.311c.166-.074.517-.2.831-.314a46.242,46.242,0,0,0,4.432-1.644V-4.432A25.458,25.458,0,0,1,63.4-3.306v-9.307a19.308,19.308,0,0,0,2.419-.979c.776-.369.776-.369,1-.462l-.849-1a9.741,9.741,0,0,1-3.786,1.607,10.138,10.138,0,0,1,.074,1.607Zm10.083-9.4a13.362,13.362,0,0,1,.074-1.625,12.248,12.248,0,0,1-1.625.074H68.4a13.362,13.362,0,0,1-1.625-.074,16.068,16.068,0,0,1,.055,1.607V-.646a16.116,16.116,0,0,1-.111,2.087h1.385A13.208,13.208,0,0,1,68-.665V-12.872h3.195v9.548c0,.517-.111.591-.813.591A10.77,10.77,0,0,1,68.587-2.9,3.4,3.4,0,0,1,68.9-1.681c.7.055,1,.074,1.348.074,1.7,0,2.087-.277,2.087-1.5Zm6.925-1.163a26.31,26.31,0,0,0,6.888,1.256l.259-1.237a22.583,22.583,0,0,1-6.685-1.145ZM77.673-8.753c.48-.055.868-.092,1.754-.148a35.422,35.422,0,0,0,5.5-.591c-1.33,1.274-2.271,2.2-2.807,2.733C80.628-5.282,79.1-3.8,77.765-2.567a13.305,13.305,0,0,1-1.994,1.7L76.805.277c.646-.739,1.865-1.994,2.77-2.825,1.533-1.422,2.438-1.939,3.4-1.939a.9.9,0,0,1,.849.443,3.2,3.2,0,0,1,.2,1.274,4.673,4.673,0,0,0,.406,2.031c.388.72,1.2,1.053,2.585,1.053a14.685,14.685,0,0,0,2.53-.24c1.311-.2,1.311-.2,1.5-.222l-.2-1.422a9.958,9.958,0,0,1-3.73.683c-.849,0-1.274-.148-1.533-.5-.2-.3-.259-.572-.332-1.736-.074-1.053-.2-1.477-.572-1.847a1.713,1.713,0,0,0-1.256-.48,3.918,3.918,0,0,0-1.847.609,40.975,40.975,0,0,0,3.657-3.324A17.008,17.008,0,0,1,86.87-9.7l-.813-1.016a3.512,3.512,0,0,1-.886.2,62.967,62.967,0,0,1-6.482.443c-.406,0-.646,0-1.108-.037Zm16.565-1.976a54.242,54.242,0,0,1,6.371-.609,35.787,35.787,0,0,0,4.063-.406,12.089,12.089,0,0,0-1.754.979A7,7,0,0,0,99.464-5.1a4.5,4.5,0,0,0,2.05,3.767A9.315,9.315,0,0,0,105.5.092c.3.055.369.074.572.111l.24-1.5h-.185a9.465,9.465,0,0,1-2.77-.591A3.621,3.621,0,0,1,100.776-5.3a5.644,5.644,0,0,1,2.271-4.266,9.378,9.378,0,0,1,3.546-1.865,8.565,8.565,0,0,1,2.068-.24l-.111-1.385a12.4,12.4,0,0,1-2.2.2c-2.382.111-8.292.443-10.489.609-.572.037-.794.055-1.053.055h-.665Zm17.415,7.922a18.431,18.431,0,0,1,3.638,4.026L116.325.24a18.817,18.817,0,0,0-3.712-3.915Zm29.474-8.366h-1.57a10.478,10.478,0,0,1-1.791-.092v1.127a9.209,9.209,0,0,1,1.625-.092h1.736V-8.55h-1.311a9.646,9.646,0,0,1-1.367-.074v1.053a9.7,9.7,0,0,1,1.348-.074h1.33v1.477h-1.4a8.725,8.725,0,0,1-1.607-.092v1.108a9.1,9.1,0,0,1,1.607-.092h1.4v1.57h-2.105a12.038,12.038,0,0,1-1.717-.092v1.145a10.311,10.311,0,0,1,1.7-.092h2.124v.369A9.075,9.075,0,0,1,141.034-1h1.219a8.358,8.358,0,0,1-.092-1.367v-.351h2.77a16.421,16.421,0,0,1,1.81.074V-3.767a15.814,15.814,0,0,1-1.81.092h-2.77v-1.57h2.105A17.291,17.291,0,0,1,146-5.152V-6.26a10.562,10.562,0,0,1-1.717.092h-2.124V-7.645H144.3c.554,0,1.016.018,1.4.037a9.886,9.886,0,0,1-.037-1.127v-1.5h.185a7.972,7.972,0,0,1,1.237.092v-1.127a5.925,5.925,0,0,1-1.237.092h-.185V-12.5a10.307,10.307,0,0,1,.037-1.237,11.7,11.7,0,0,1-1.385.055h-2.161v-.166a9.368,9.368,0,0,1,.074-1.348h-1.2a9.266,9.266,0,0,1,.092,1.348v.166h-1.163a7.157,7.157,0,0,1-1.4-.092v1.108a10.212,10.212,0,0,1,1.4-.074h1.163Zm1.034,0v-1.57h2.456v1.57Zm0,.942h2.456V-8.55h-2.456Zm-8.476,3.878A15.162,15.162,0,0,0,135.4-2.7,9.13,9.13,0,0,1,133.223.388a2.885,2.885,0,0,1,.794.886A12.727,12.727,0,0,0,136.1-1.791,6.453,6.453,0,0,0,139.021.092,16.167,16.167,0,0,0,144.4.776c.72,0,1.237-.018,2.456-.074A3.092,3.092,0,0,1,147.2-.5a34.241,34.241,0,0,1-3.472.2c-3.693,0-5.688-.7-7.2-2.512a24.07,24.07,0,0,0,1.182-5.152c.074-.5.074-.5.129-.96a10.8,10.8,0,0,1-1.7.074h-.776a25.531,25.531,0,0,0,2.2-4.063,4.351,4.351,0,0,1,.24-.5l-.536-.572a5.994,5.994,0,0,1-.979.055h-.942a8.65,8.65,0,0,1-1.09-.055v1.127a5.658,5.658,0,0,1,1.034-.092h1.163a23.982,23.982,0,0,1-2.881,5.06c.5-.037.776-.037,1.33-.037h1.791a21.4,21.4,0,0,1-.85,4.081,8.186,8.186,0,0,1-1.09-2.955ZM131.8-.96a18.529,18.529,0,0,1-.111,2.271h1.274c-.055-.609-.074-1.2-.074-2.29v-9.935a29.482,29.482,0,0,0,1.2-3.343,6.235,6.235,0,0,1,.3-.886l-1.182-.332a15.326,15.326,0,0,1-.776,2.844,18.5,18.5,0,0,1-2.862,5.374,2.17,2.17,0,0,1,.2.277,1.712,1.712,0,0,1,.369.536,1.618,1.618,0,0,0,.129.222,14.835,14.835,0,0,0,1.588-2.733c-.037.886-.055,1.736-.055,2.807Zm25.466-8.089H151.32c.018-1.127.037-1.884.037-3.8H163.4a13.082,13.082,0,0,1,1.754.092v-1.2a11.769,11.769,0,0,1-1.921.111h-5.171v-.443a5.235,5.235,0,0,1,.092-1.219h-1.367a5.3,5.3,0,0,1,.111,1.2v.462h-4.691a14.74,14.74,0,0,1-2.068-.092,18.641,18.641,0,0,1,.074,2.087,50.179,50.179,0,0,1-.628,8.975A11.17,11.17,0,0,1,148.421.406a4.026,4.026,0,0,1,.979.868c1.219-2.475,1.7-4.82,1.884-9.363h5.983v1.477h-3.4a7.7,7.7,0,0,1-1.44-.092v1.127a8.135,8.135,0,0,1,1.477-.092h3.361V-3.25a27.655,27.655,0,0,1-4.561,1.884,9.557,9.557,0,0,1-1.514.406L151.764.2c.222-.092.406-.185.7-.3a38.273,38.273,0,0,0,4.8-2.105V-.332c0,.388-.111.443-.757.443a9.493,9.493,0,0,1-1.958-.222,4.113,4.113,0,0,1,.259,1.256c.683.055,1.219.074,1.7.074,1.44,0,1.81-.277,1.81-1.385v-2.9c0-.351-.037-1.348-.092-1.865a11.876,11.876,0,0,0,2.327,3.25,14.443,14.443,0,0,0,3.952,2.733,5.828,5.828,0,0,1,.831-1.016,13.3,13.3,0,0,1-4.063-2.493,20.274,20.274,0,0,0,3.066-2.456l-.979-.7a10.84,10.84,0,0,1-2.807,2.456,10.607,10.607,0,0,1-1.791-2.512h3.269c.443,0,.443,0,1.348.037a10.863,10.863,0,0,1-.037-1.293V-8.089h.536A8.951,8.951,0,0,1,165.337-8V-9.141a6.79,6.79,0,0,1-1.44.092h-.554v-1.108a8.47,8.47,0,0,1,.055-1.274,12.9,12.9,0,0,1-1.588.074h-3.472a5.108,5.108,0,0,1,.074-1.071h-1.237a6.335,6.335,0,0,1,.092,1.071h-3.213a7.558,7.558,0,0,1-1.459-.092v1.127a8.547,8.547,0,0,1,1.459-.092h3.213Zm5,.96v1.477h-3.934V-8.089Zm0-.96h-3.934v-1.367h3.934Zm-9.7,4.414a10.873,10.873,0,0,1,2.567,1.976l.757-.72A13.27,13.27,0,0,0,153.37-5.3ZM172.3-14.977a19,19,0,0,1-.628,3.472c-.351,0-.96.018-1.33.018a11.67,11.67,0,0,1-2.2-.148l-.018,1.274h.24c.055,0,.2,0,.406.018.277,0,.9.018,1.219.018.277,0,.9-.018,1.367-.037A27.652,27.652,0,0,1,169.437-5.6a16.3,16.3,0,0,1-1.773,2.881l1.256.739c.092-.148.2-.369.369-.628.7-1.219.868-1.533,1.311-2.419a34.4,34.4,0,0,0,2.05-5.392,22.294,22.294,0,0,0,3.029-.388c.443-.074.443-.074.646-.111l-.055-1.274a15.367,15.367,0,0,1-3.306.609c.259-.942.369-1.385.5-2.013a5.784,5.784,0,0,1,.3-1.182Zm10.877,5.1a25.453,25.453,0,0,0-4.875-2.438l-.683,1.034a20.029,20.029,0,0,1,4.894,2.512Zm.037,8.181a1.869,1.869,0,0,1-.332-.3,13.266,13.266,0,0,0-3.62-2.235,22.031,22.031,0,0,1-.2-2.807,5.668,5.668,0,0,1,.24-1.717l-1.256-.129a7.478,7.478,0,0,0-.185,1.791c0,.462.037,1.33.129,2.53a6.1,6.1,0,0,0-1.865-.277,5.4,5.4,0,0,0-2.179.406,2.619,2.619,0,0,0-1.717,2.345c0,1.644,1.385,2.678,3.6,2.678,2.253,0,3.509-1.053,3.509-2.955a3.829,3.829,0,0,0-.037-.591A10.563,10.563,0,0,1,182.53-.443ZM178.079-3.38s.037.572.037.794c0,1.385-.72,2.013-2.308,2.013-1.459,0-2.345-.572-2.345-1.514,0-1.016,1-1.662,2.567-1.662A5.48,5.48,0,0,1,178.079-3.38Zm15.457-6.962v3.97h-3.379a12.789,12.789,0,0,1-1.958-.111v1.293a13.648,13.648,0,0,1,1.958-.111h3.379V-.462h-5.485a14.259,14.259,0,0,1-2.161-.129V.757A15.022,15.022,0,0,1,188.07.628h11.874a14.923,14.923,0,0,1,2.161.129V-.591a14.2,14.2,0,0,1-2.179.129h-5.152V-5.3h3.73a13.935,13.935,0,0,1,1.976.111V-6.482a12.9,12.9,0,0,1-1.976.111h-3.73v-3.97h4.561a18.035,18.035,0,0,1,2.087.111v-1.311a17.472,17.472,0,0,1-2.105.111h-4.543v-1.958a12.418,12.418,0,0,1,.129-1.958h-1.5a13.407,13.407,0,0,1,.129,1.958v1.958h-3.878c.388-1.016.609-1.625.665-1.791a7.5,7.5,0,0,1,.369-.979l-1.385-.369a5.547,5.547,0,0,1-.406,1.736A15.127,15.127,0,0,1,185.6-7.165a3.618,3.618,0,0,1,1.053.776,17.483,17.483,0,0,0,2.53-3.952Zm20.406.554h-3.509a12.424,12.424,0,0,1-1.865-.111v1.311a13.685,13.685,0,0,1,1.865-.111h3.509v3.139h-2.715a8.89,8.89,0,0,1-1.348-.074,13.958,13.958,0,0,1,.074,1.625V-.462a12.311,12.311,0,0,1-.092,1.81h1.256V.3h7.147V1.348h1.256a14.318,14.318,0,0,1-.092-1.791V-3.952a12.136,12.136,0,0,1,.074-1.681,8.9,8.9,0,0,1-1.422.074h-2.955V-8.7h3.6a13.6,13.6,0,0,1,1.884.111V-9.9a12.7,12.7,0,0,1-1.884.111h-3.6v-3.195c1.773-.332,3.213-.665,4.284-.979l.609-.166-.85-1.108a8.6,8.6,0,0,1-2.124.739,33.527,33.527,0,0,1-7.812,1.053,3.624,3.624,0,0,1,.48,1.127,36.87,36.87,0,0,0,4.229-.462Zm-2.825,5.282h7.147V-.794h-7.147Zm-6.464-9.751a19.386,19.386,0,0,1,3.213,2.585l.72-.979a21.869,21.869,0,0,0-3.176-2.456Zm-.7,4.709a14.852,14.852,0,0,1,3.4,2.29L208-8.329a16.336,16.336,0,0,0-3.4-2.124Zm3.287,4.321a18.634,18.634,0,0,1-2.6,4.654,4.94,4.94,0,0,1-.572.628l1.053.96a34.467,34.467,0,0,0,3.066-5.5Zm20.776-7.2a25.84,25.84,0,0,1-3.952-.2l-.018,1.274a3.275,3.275,0,0,1,.406-.018h.3c.683.018,2.419.055,2.715.055a2.045,2.045,0,0,0,.351-.037l-.166.277A18.377,18.377,0,0,1,223.509-5.8l1.034,1.034A6.111,6.111,0,0,1,225.965-6.3a6.937,6.937,0,0,1,4.118-1.958c.868,0,1.311.443,1.459,1.459a14.336,14.336,0,0,0-2.752,1.477A3.818,3.818,0,0,0,226.907-2.4c0,1.9,1.607,2.844,4.912,2.844a28.649,28.649,0,0,0,4.488-.369,7.268,7.268,0,0,1,.739-.092l-.166-1.422a15.473,15.473,0,0,1-4.931.72c-2.6,0-3.749-.536-3.749-1.754,0-1.108.96-1.976,3.472-3.158a4.854,4.854,0,0,1,.018.554,26.562,26.562,0,0,1-.111,2.659l1.256-.018A4.014,4.014,0,0,1,232.8-3.1c0-.166,0-.425.018-.831.018-.369.018-.776.018-1.016,0-.462,0-.646-.037-1.127A30.662,30.662,0,0,1,237.729-7.7l-.591-1.293a4.063,4.063,0,0,1-1.256.536c-.813.3-1.865.683-3.213,1.219a2.241,2.241,0,0,0-2.438-2.05,4.915,4.915,0,0,0-2.789.9c-.185.129-.185.129-.85.646a.142.142,0,0,1-.037-.055v-.018a.018.018,0,0,0,.018-.018c.018-.018.111-.092.24-.185.074-.055.443-.48.628-.7a13.618,13.618,0,0,0,1.662-2.622,59.629,59.629,0,0,0,6.094-.48,5.757,5.757,0,0,1,.739-.092l-.111-1.256a25.991,25.991,0,0,1-5.817.7,3.143,3.143,0,0,0-.388.018c.092-.166.332-.665.572-1.256a3.922,3.922,0,0,1,.48-1l-1.477-.259a7.838,7.838,0,0,1-.886,2.53Z" transform="translate(94 392)"/></g></svg>